# xmcd CD database file
#
# Track frame offsets:
#	150
#	20292
#	40690
#	62792
#	86575
#	96312
#	104502
#	125927
#	149585
#	167965
#	180815
#	200482
#
# Disc length: 2739 seconds
#
# Revision: 0
# Processed by: cddbd v1.5.1PL0 Copyright (c) Steve Scherf et al.
# Submitted via: CDex 1.51
#
DISCID=a90ab10c
DTITLE=Science Ministry - 猿の記憶
DYEAR=2004
DGENRE=Progressive Rock
TTITLE0=HALF EMPTY/HALF FULL
TTITLE1=TILL YOU SEE ME THROUGH
TTITLE2=SWEET WONDERING
TTITLE3=EVERYTHING HAS CHANGED
TTITLE4=SPEED OF LIFE
TTITLE5=HALF EMPTY/HARF FULL(Reprise)
TTITLE6=FALLING DOWN
TTITLE7=猿の記憶
TTITLE8=THE CIRCLE IS TRUE
TTITLE9=SHE DID'NT MEAN MUCH TO ME
TTITLE10=HURRY UP AND WAIT
TTITLE11=STILL LIFE〜Deaf idiot joumalist starts colored rumour・・・
EXTD=YEAR: 2004
EXTT0=
EXTT1=
EXTT2=
EXTT3=
EXTT4=
EXTT5=
EXTT6=
EXTT7=
EXTT8=
EXTT9=
EXTT10=
EXTT11=
PLAYORDER=
